<svg width="40" height="10" viewBox="0 0 40 10" fill="none" xmlns="http://www.w3.org/2000/svg">
<path d="M7.90259 1.37423C9.76743 1.37423 11.3094 2.76913 11.5277 4.56277L-0.000213623 4.56277L-0.000213623 5.43723L11.5277 5.43723C11.3094 7.23087 9.76743 8.62553 7.90259 8.62553H-0.000213623L-0.000213623 9.5H7.90259C10.2538 9.5 12.1922 7.71414 12.4144 5.43723H17.1829V6.47664L39.9998 6.47664V3.52324L17.1829 3.52324V4.56289H12.4144C12.1922 2.28598 10.2538 0.5 7.90259 0.5H-0.000213623L-0.000213623 1.37435H7.90259V1.37423ZM18.0639 4.39771L39.1188 4.39771V5.60217L18.0639 5.60217V4.39771Z" fill="#DCCA87"/>
</svg>
